<svg width="30" height="31" viewBox="0 0 30 31" fill="none" xmlns="http://www.w3.org/2000/svg">
<g id="alarm-clock-check">
<path id="Icon" d="M6.25 3.99072L2.5 7.74072M27.5 7.74072L23.75 3.99072M7.5 23.9907L5 26.4907M22.5 23.9907L25 26.4907M11.25 17.1157L13.75 19.6157L19.375 13.9907M15 26.4907C17.6522 26.4907 20.1957 25.4372 22.0711 23.5618C23.9464 21.6864 25 19.1429 25 16.4907C25 13.8386 23.9464 11.295 22.0711 9.41965C20.1957 7.54429 17.6522 6.49072 15 6.49072C12.3478 6.49072 9.8043 7.54429 7.92893 9.41965C6.05357 11.295 5 13.8386 5 16.4907C5 19.1429 6.05357 21.6864 7.92893 23.5618C9.8043 25.4372 12.3478 26.4907 15 26.4907Z" stroke="#475467" stroke-width="2" stroke-linecap="round" stroke-linejoin="round"/>
</g>
</svg>
