<svg width="17" height="17" viewBox="0 0 17 17" fill="none" xmlns="http://www.w3.org/2000/svg">
<g id="backpack">
<path id="Icon" d="M13.8333 9.15495V12.3549C13.8333 13.1017 13.8333 13.4751 13.688 13.7603C13.5602 14.0112 13.3562 14.2151 13.1053 14.343C12.8201 14.4883 12.4467 14.4883 11.7 14.4883H5.3C4.55326 14.4883 4.1799 14.4883 3.89468 14.343C3.6438 14.2151 3.43982 14.0112 3.31199 13.7603C3.16667 13.4751 3.16667 13.1017 3.16667 12.3549V9.15495M6.5 7.15495H10.5M6.69048 9.82161H10.3095C11.7312 9.82161 12.442 9.82161 12.9904 9.55753C13.5346 9.29542 13.9738 8.85626 14.2359 8.31197C14.5 7.7636 14.5 7.05278 14.5 5.63114C14.5 4.56491 14.5 4.03179 14.3019 3.62051C14.1054 3.2123 13.776 2.88293 13.3678 2.68634C12.9565 2.48828 12.4234 2.48828 11.3571 2.48828H5.64286C4.57663 2.48828 4.04351 2.48828 3.63223 2.68634C3.22402 2.88293 2.89465 3.2123 2.69806 3.62051C2.5 4.03179 2.5 4.56491 2.5 5.63114C2.5 7.05278 2.5 7.7636 2.76408 8.31197C3.0262 8.85626 3.46536 9.29542 4.00964 9.55753C4.55802 9.82161 5.26884 9.82161 6.69048 9.82161Z" stroke="#344054" stroke-width="2" stroke-linecap="round" stroke-linejoin="round"/>
</g>
</svg>
