<svg width="30" height="31" viewBox="0 0 30 31" fill="none" xmlns="http://www.w3.org/2000/svg">
<g id="building-07">
<path id="Icon" d="M9.375 13.9907H5.75C5.04993 13.9907 4.6999 13.9907 4.43251 14.127C4.19731 14.2468 4.00608 14.438 3.88624 14.6732C3.75 14.9406 3.75 15.2907 3.75 15.9907V26.4907M20.625 13.9907H24.25C24.9501 13.9907 25.3001 13.9907 25.5675 14.127C25.8027 14.2468 25.9939 14.438 26.1138 14.6732C26.25 14.9406 26.25 15.2907 26.25 15.9907V26.4907M20.625 26.4907V7.99072C20.625 6.59059 20.625 5.89053 20.3525 5.35575C20.1128 4.88534 19.7304 4.50289 19.26 4.26321C18.7252 3.99072 18.0251 3.99072 16.625 3.99072H13.375C11.9749 3.99072 11.2748 3.99072 10.74 4.26321C10.2696 4.50289 9.88717 4.88534 9.64748 5.35575C9.375 5.89053 9.375 6.59059 9.375 7.99072V26.4907M27.5 26.4907H2.5M13.75 8.99072H16.25M13.75 13.9907H16.25M13.75 18.9907H16.25" stroke="#475467" stroke-width="2" stroke-linecap="round" stroke-linejoin="round"/>
</g>
</svg>
