<svg width="52" height="52" viewBox="0 0 52 52" fill="none" xmlns="http://www.w3.org/2000/svg">
<g id="Featured icon" filter="url(#filter0_d_247_9913)">
<rect x="2" y="1" width="48" height="48" rx="24" fill="white"/>
<rect x="2.5" y="1.5" width="47" height="47" rx="23.5" stroke="#667085"/>
<path id="cast_for_education" d="M29.43 22.5137L34.1911 19.7784L29.43 17.0432L24.6688 19.7784L29.43 22.5137ZM29.43 26.2448L32.8065 24.2967V21.8627L29.43 23.8351L26.0534 21.8627V24.2967L29.43 26.2448ZM36.1781 32.3614H29.4494C29.4494 32.1266 29.4419 31.8878 29.4269 31.6449C29.4119 31.4019 29.3935 31.1631 29.3716 30.9283H36.1781C36.2915 30.9283 36.3846 30.8918 36.4575 30.8189C36.5304 30.746 36.5668 30.6529 36.5668 30.5396V15.236C36.5668 15.1226 36.5304 15.0295 36.4575 14.9566C36.3846 14.8837 36.2915 14.8472 36.1781 14.8472H15.8219C15.7166 14.8472 15.6255 14.8837 15.5485 14.9566C15.4716 15.0295 15.4332 15.1226 15.4332 15.236V16.8999C15.1984 16.878 14.9608 16.8596 14.7206 16.8446C14.4804 16.8297 14.2402 16.8222 14 16.8222V15.236C14 14.7412 14.18 14.3139 14.5399 13.954C14.8998 13.594 15.3271 13.4141 15.8219 13.4141H36.1781C36.6792 13.4141 37.1081 13.594 37.4648 13.954C37.8216 14.3139 38 14.7412 38 15.236V30.5396C38 31.0343 37.8216 31.4616 37.4648 31.8215C37.1081 32.1815 36.6792 32.3614 36.1781 32.3614ZM14 32.3614V29.6238C14.7301 29.6238 15.3539 29.8913 15.8714 30.4263C16.389 30.9614 16.6477 31.6064 16.6477 32.3614H14ZM19.8785 32.3614C19.8785 30.7168 19.3085 29.3129 18.1684 28.1498C17.0283 26.9867 15.6389 26.4011 14 26.393V24.9598C16.0362 24.9598 17.7639 25.682 19.183 27.1265C20.6021 28.5709 21.3117 30.3159 21.3117 32.3614H19.8785ZM24.7854 32.3614C24.7854 30.865 24.5049 29.4549 23.9437 28.131C23.3826 26.8072 22.6146 25.6525 21.6397 24.6671C20.6648 23.6817 19.5226 22.9052 18.2132 22.3376C16.9037 21.7699 15.4994 21.4861 14 21.4861V20.053C15.6939 20.053 17.2821 20.3771 18.7646 21.0253C20.247 21.6735 21.5402 22.5532 22.6442 23.6645C23.7481 24.7758 24.6198 26.0811 25.2593 27.5804C25.8988 29.0797 26.2186 30.6734 26.2186 32.3614H24.7854Z" fill="#475467"/>
</g>
<defs>
<filter id="filter0_d_247_9913" x="0" y="0" width="52" height="52" filterUnits="userSpaceOnUse" color-interpolation-filters="sRGB">
<feFlood flood-opacity="0" result="BackgroundImageFix"/>
<feColorMatrix in="SourceAlpha" type="matrix" values="0 0 0 0 0 0 0 0 0 0 0 0 0 0 0 0 0 0 127 0" result="hardAlpha"/>
<feOffset dy="1"/>
<feGaussianBlur stdDeviation="1"/>
<feColorMatrix type="matrix" values="0 0 0 0 0.0627451 0 0 0 0 0.0941176 0 0 0 0 0.156863 0 0 0 0.05 0"/>
<feBlend mode="normal" in2="BackgroundImageFix" result="effect1_dropShadow_247_9913"/>
<feBlend mode="normal" in="SourceGraphic" in2="effect1_dropShadow_247_9913" result="shape"/>
</filter>
</defs>
</svg>
