<svg width="61" height="96" viewBox="0 0 61 96" fill="none" xmlns="http://www.w3.org/2000/svg">
<g id="Group">
<g id="Group_2">
<g id="Group_3">
<path id="Vector" fill-rule="evenodd" clip-rule="evenodd" d="M60.8523 64.7539C60.8523 81.5489 47.2201 95.1812 30.4321 95.1812C13.6371 95.1812 0.00488281 81.5489 0.00488281 64.7539V17.8514L40.4608 0.565918L60.8523 17.8514V64.7539Z" fill="#4E5BA6"/>
</g>
<g id="Group_4">
<path id="Vector_2" d="M9.82424 74.6202L10.1796 75.4659C10.0517 75.4943 9.90956 75.5015 9.76741 75.5086C9.61815 75.5157 9.44759 75.4943 9.24858 75.4517C9.04246 75.409 8.85051 75.345 8.67283 75.2526C8.49514 75.1674 8.31746 75.0253 8.14688 74.8405C7.9763 74.6486 7.83416 74.4212 7.72044 74.1582C7.47168 73.5541 7.47881 72.957 7.74179 72.3671C7.99766 71.7843 8.45249 71.3507 9.11349 71.0806C9.76738 70.8105 10.3929 70.7963 10.9899 71.0308C11.5869 71.2654 12.0063 71.6847 12.2622 72.2889C12.3617 72.5376 12.4185 72.7864 12.4327 73.0281C12.4469 73.2697 12.4256 73.4829 12.3688 73.6748C12.319 73.8667 12.2337 74.0444 12.1342 74.215C12.0276 74.3856 11.921 74.5278 11.8073 74.6415C11.7007 74.7552 11.5869 74.8547 11.4661 74.94L11.1179 74.0871C11.3027 73.9165 11.4377 73.6962 11.5229 73.4475C11.6153 73.1916 11.5941 72.9143 11.4732 72.6158C11.3098 72.232 11.0468 71.9691 10.6772 71.8341C10.3005 71.699 9.88827 71.7202 9.44761 71.905C8.99983 72.0827 8.69418 72.36 8.5236 72.7154C8.36012 73.0779 8.353 73.4473 8.50937 73.8311C8.6373 74.1368 8.82212 74.3501 9.06377 74.4638C9.31254 74.5846 9.56126 74.6344 9.82424 74.6202Z" fill="white"/>
<path id="Vector_3" d="M9.42773 77.4777L13.3298 74.7412L15.1706 77.3638L14.5025 77.8331L13.1734 75.9354L12.2209 76.5963L13.4719 78.3875L12.8038 78.8494L11.5529 77.0654L10.6075 77.7334L11.9367 79.6313L11.2686 80.1003L9.42773 77.4777Z" fill="white"/>
<path id="Vector_4" d="M12.4102 81.4558L15.6441 77.959L17.2433 79.4374C17.556 79.7217 17.7195 80.0771 17.7266 80.4893C17.7337 80.9015 17.5774 81.2781 17.2575 81.6264C16.959 81.9533 16.6107 82.1312 16.2269 82.1525C15.836 82.1738 15.4948 82.06 15.1963 81.8041L15.2106 84.0431L14.3861 83.2825L14.3718 81.0437L14.1657 80.8589L13.057 82.06L12.4102 81.4558ZM14.7201 80.2547L15.6512 81.1147C15.7721 81.2284 15.9355 81.2783 16.1203 81.2641C16.3122 81.257 16.4757 81.1716 16.6107 81.0224C16.76 80.866 16.831 80.6883 16.831 80.5035C16.8381 80.3116 16.7742 80.1552 16.6392 80.0343L15.7152 79.1815L14.7201 80.2547Z" fill="white"/>
<path id="Vector_5" d="M17.3662 85.4884L19.399 82.1407L18.1765 81.3944L18.6171 80.6694L21.8155 82.6169L21.3749 83.3419L20.1524 82.6027L18.1196 85.9503L17.3662 85.4884Z" fill="white"/>
<path id="Vector_6" d="M21.0068 87.3872L22.7625 82.9521L23.5869 83.2791L21.8313 87.707L21.0068 87.3872Z" fill="white"/>
<path id="Vector_7" d="M23.8574 88.4134L24.8311 83.751L27.9301 84.3977L27.7666 85.1936L25.5278 84.7317L25.2932 85.8619L27.3615 86.2953L27.1909 87.0915L25.1297 86.665L24.7246 88.5982L23.8574 88.4134Z" fill="white"/>
<path id="Vector_8" d="M28.9355 89.2176L29.1346 84.4556L30.023 84.491L29.824 89.2531L28.9355 89.2176Z" fill="white"/>
<path id="Vector_9" d="M34.9674 87.1412L35.8843 87.0062C35.8701 87.1412 35.8488 87.2763 35.8204 87.4185C35.7849 87.5606 35.728 87.724 35.6356 87.9088C35.5432 88.0936 35.4294 88.2571 35.3015 88.4134C35.1735 88.5627 34.9959 88.6978 34.7684 88.8186C34.541 88.9466 34.2923 89.0248 34.0079 89.0675C33.3612 89.1527 32.7855 89.0034 32.2738 88.6054C31.7691 88.2145 31.4706 87.6671 31.364 86.9635C31.2716 86.2598 31.4066 85.6487 31.7833 85.1299C32.1529 84.611 32.6646 84.2983 33.3114 84.2059C33.5815 84.1703 33.8302 84.1774 34.0719 84.2201C34.3064 84.2698 34.5125 84.341 34.6831 84.4405C34.8537 84.54 35.0101 84.6608 35.1451 84.8029C35.2873 84.9451 35.401 85.0871 35.4792 85.2222C35.5645 85.3572 35.6285 85.4923 35.6853 85.6274L34.7755 85.7552C34.6476 85.5349 34.477 85.3501 34.2496 85.2008C34.0221 85.0587 33.7521 85.009 33.4323 85.0516C33.0201 85.1085 32.7001 85.3075 32.4798 85.6345C32.2524 85.9614 32.1742 86.3594 32.2453 86.8356C32.3093 87.3189 32.5012 87.6814 32.8068 87.9302C33.1124 88.1861 33.4749 88.2784 33.8871 88.2215C34.2069 88.1789 34.4628 88.0511 34.6334 87.8379C34.8111 87.6318 34.9177 87.397 34.9674 87.1412Z" fill="white"/>
<path id="Vector_10" d="M37.0143 88.4796L36.8936 83.419L38.1018 82.957L41.3997 86.795L40.4828 87.1504L39.7792 86.326L37.9099 87.0439L37.9383 88.1242L37.0143 88.4796ZM37.8815 86.1768L39.2176 85.665L37.9312 84.1155L37.8033 84.1653L37.8815 86.1768Z" fill="white"/>
<path id="Vector_11" d="M43.2016 85.6659L41.0977 82.3679L39.8895 83.1356L39.4346 82.4177L42.5903 80.4062L43.0523 81.117L41.844 81.8918L43.9478 85.1896L43.2016 85.6659Z" fill="white"/>
<path id="Vector_12" d="M46.5128 83.2343L43.3145 79.6948L43.9755 79.105L47.1668 82.6445L46.5128 83.2343Z" fill="white"/>
<path id="Vector_13" d="M48.3607 79.6315C48.7587 79.5889 49.0785 79.404 49.3344 79.07C49.5832 78.743 49.6756 78.3805 49.6045 77.9896C49.5334 77.5987 49.3059 77.2576 48.9221 76.9662C48.5383 76.6748 48.1474 76.5468 47.7565 76.5823C47.3585 76.6179 47.0315 76.8027 46.7827 77.1368C46.5269 77.4708 46.4416 77.8333 46.5127 78.2242C46.5837 78.6151 46.8112 78.9563 47.195 79.2477C47.5788 79.532 47.9698 79.667 48.3607 79.6315ZM45.6598 78.3592C45.5603 77.7195 45.7095 77.1439 46.1005 76.625C46.4985 76.0991 47.0173 75.8006 47.657 75.7295C48.2895 75.6584 48.8937 75.829 49.4552 76.2625C50.0238 76.689 50.3508 77.2221 50.4574 77.8546C50.5498 78.4872 50.4076 79.07 50.0096 79.5888C49.6187 80.1077 49.0998 80.4062 48.4601 80.4773C47.8204 80.5554 47.2235 80.3778 46.6549 79.9513C46.0934 79.5177 45.7593 78.9918 45.6598 78.3592Z" fill="white"/>
<path id="Vector_14" d="M52.1153 76.3321L47.7441 74.4274L48.2204 73.3399L51.9447 73.0628L51.9945 72.9418L48.9667 71.6199L49.3221 70.8096L53.6932 72.7145L53.217 73.802L49.4926 74.0791L49.4428 74.1999L52.4707 75.5219L52.1153 76.3321Z" fill="white"/>
</g>
<g id="Group_5">
<path id="Vector_15" d="M10.9092 26.9298V21.3877H13.5022C14.0436 21.3877 14.4805 21.5586 14.8129 21.8958C15.1454 22.2329 15.3115 22.6842 15.3115 23.2493C15.3115 23.8144 15.1454 24.2656 14.8129 24.6028C14.4805 24.94 14.0436 25.1109 13.5022 25.1109H11.9777V26.9298H10.9092ZM11.9777 24.1184H13.4595C13.6969 24.1184 13.8868 24.0424 14.0293 23.8905C14.1718 23.7385 14.243 23.5247 14.243 23.2493C14.243 22.9738 14.1718 22.7601 14.0293 22.6081C13.8868 22.4561 13.6969 22.3802 13.4595 22.3802H11.9777V24.1184Z" fill="white"/>
<path id="Vector_16" d="M16.2734 26.9298V21.3877H18.9044C19.4221 21.3877 19.8542 21.5633 20.2009 21.9053C20.5476 22.2519 20.7185 22.6984 20.7185 23.2493C20.7185 23.7669 20.5571 24.1848 20.2294 24.5125C19.9018 24.8354 19.5028 25.0112 19.0279 25.0302L20.8848 26.9298H19.5218L17.6744 25.0302H17.342V26.9298H16.2734ZM17.342 24.0804H18.8665C19.0754 24.0804 19.2558 23.9996 19.4126 23.8382C19.5693 23.6767 19.6453 23.482 19.6453 23.2493C19.6453 22.9976 19.5693 22.7886 19.4173 22.6224C19.2653 22.4609 19.0802 22.3802 18.8665 22.3802H17.342V24.0804Z" fill="white"/>
<path id="Vector_17" d="M23.0733 25.5155C23.3963 25.8526 23.8094 26.0189 24.3128 26.0189C24.821 26.0189 25.2341 25.8479 25.5571 25.5107C25.88 25.1688 26.0415 24.7176 26.0415 24.1619C26.0415 23.6015 25.88 23.1505 25.5571 22.8085C25.2341 22.4713 24.821 22.3003 24.3128 22.3003C23.8094 22.3003 23.3963 22.4713 23.0733 22.8085C22.7456 23.1505 22.5842 23.6015 22.5842 24.1619C22.5842 24.7176 22.7456 25.1688 23.0733 25.5155ZM22.3229 22.1198C22.8596 21.5784 23.5245 21.3125 24.3128 21.3125C25.1059 21.3125 25.7708 21.5784 26.3074 22.1198C26.8441 22.6565 27.1148 23.3356 27.1148 24.1619C27.1148 24.9835 26.8441 25.6627 26.3074 26.2041C25.7708 26.7407 25.1059 27.0114 24.3128 27.0114C23.5245 27.0114 22.8596 26.7407 22.3229 26.2041C21.7863 25.6627 21.5156 24.9835 21.5156 24.1619C21.5156 23.3356 21.7863 22.6565 22.3229 22.1198Z" fill="white"/>
<path id="Vector_18" d="M28.1201 26.9298V21.3877H30.2192C31.0028 21.3877 31.6677 21.6536 32.209 22.1855C32.7504 22.7127 33.0211 23.3727 33.0211 24.1611C33.0211 24.9447 32.7504 25.6049 32.209 26.132C31.6677 26.6639 31.0028 26.9298 30.2192 26.9298H28.1201ZM29.1934 25.942H30.2192C30.7178 25.942 31.131 25.7757 31.4587 25.448C31.7863 25.1204 31.9478 24.693 31.9478 24.1611C31.9478 23.6244 31.7863 23.197 31.4587 22.8693C31.131 22.5417 30.7178 22.3802 30.2192 22.3802H29.1934V25.942Z" fill="white"/>
<path id="Vector_19" d="M33.9824 24.674V21.3877H35.0557V24.674C35.0557 25.0634 35.1792 25.3864 35.4309 25.6381C35.6826 25.8945 35.996 26.018 36.3712 26.018C36.7416 26.018 37.0551 25.8945 37.3068 25.6381C37.5632 25.3864 37.6867 25.0634 37.6867 24.674V21.3877H38.7599V24.674C38.7599 25.3864 38.5415 25.9515 38.1093 26.3742C37.6724 26.7969 37.0931 27.0105 36.3712 27.0105C35.6446 27.0105 35.0652 26.7969 34.633 26.3742C34.2009 25.9515 33.9824 25.3864 33.9824 24.674Z" fill="white"/>
<path id="Vector_20" d="M44.0024 24.9504H45.1137C45.0804 25.0976 45.033 25.2543 44.9665 25.411C44.9047 25.5677 44.805 25.7481 44.6625 25.9428C44.5248 26.1423 44.3633 26.3181 44.1829 26.47C44.0024 26.6267 43.765 26.7503 43.4753 26.8547C43.1856 26.9592 42.8674 27.0114 42.5207 27.0114C41.7276 27.0114 41.0675 26.7407 40.5261 26.2041C39.9895 25.6627 39.7188 24.9835 39.7188 24.1619C39.7188 23.3356 39.9895 22.6565 40.5261 22.1198C41.0675 21.5784 41.7276 21.3125 42.5207 21.3125C42.8436 21.3125 43.1428 21.3553 43.423 21.4502C43.6985 21.5405 43.9312 21.6592 44.1164 21.8017C44.3016 21.9441 44.4678 22.1104 44.6103 22.2956C44.7528 22.4855 44.862 22.6612 44.938 22.8322C45.0187 22.9984 45.0757 23.1646 45.1137 23.3308H44.0024C43.8932 23.0554 43.7127 22.8132 43.4705 22.609C43.2283 22.4048 42.9101 22.3003 42.5207 22.3003C42.0126 22.3003 41.5994 22.4713 41.2765 22.8085C40.9535 23.1505 40.792 23.6015 40.792 24.1619C40.792 24.7176 40.9535 25.1688 41.2765 25.5107C41.5994 25.8479 42.0126 26.0189 42.5207 26.0189C42.9149 26.0189 43.2331 25.9143 43.48 25.7054C43.7222 25.4917 43.8979 25.24 44.0024 24.9504Z" fill="white"/>
<path id="Vector_21" d="M47.1496 26.9298V22.3802H45.4209V21.3877H49.9515V22.3802H48.2229V26.9298H47.1496Z" fill="white"/>
<path id="Vector_22" d="M15.4473 35.8689V30.3267H17.5464C18.33 30.3267 18.9901 30.5927 19.5314 31.1246C20.0728 31.6517 20.3436 32.3118 20.3436 33.0954C20.3436 33.8837 20.0728 34.5438 19.5314 35.071C18.9901 35.6029 18.33 35.8689 17.5464 35.8689H15.4473ZM16.5158 34.8763H17.5464C18.045 34.8763 18.4582 34.7148 18.7811 34.3871C19.1088 34.0594 19.2703 33.632 19.2703 33.0954C19.2703 32.5635 19.1088 32.1361 18.7811 31.8084C18.4582 31.4807 18.045 31.3145 17.5464 31.3145H16.5158V34.8763Z" fill="white"/>
<path id="Vector_23" d="M21.3467 35.8689V30.3267H25.2172V31.2765H22.42V32.6205H25.0509V33.5703H22.42V34.9191H25.2172V35.8689H21.3467Z" fill="white"/>
<path id="Vector_24" d="M25.9736 34.127H27.0469C27.0469 34.374 27.1609 34.583 27.3936 34.7492C27.631 34.9154 27.935 34.9961 28.3196 34.9961C28.7138 34.9961 28.9988 34.9344 29.1888 34.8062C29.3787 34.6732 29.4737 34.5022 29.4737 34.2838C29.4737 33.9181 29.1603 33.6806 28.5286 33.5714L27.5408 33.4147C26.5815 33.2627 26.0971 32.7593 26.0971 31.9092C26.0971 31.4343 26.2918 31.0402 26.6765 30.722C27.0612 30.4085 27.5788 30.2471 28.2389 30.2471C28.9513 30.2471 29.5022 30.4181 29.8869 30.7553C30.2715 31.0924 30.4615 31.5294 30.4615 32.0708H29.3929C29.3929 31.8191 29.2884 31.6148 29.089 31.4486C28.8848 31.2824 28.5999 31.1969 28.2389 31.1969C27.8828 31.1969 27.6168 31.2633 27.4363 31.3916C27.2559 31.5245 27.1704 31.6955 27.1704 31.9092C27.1704 32.0802 27.2274 32.218 27.3414 32.3177C27.4553 32.4222 27.6596 32.4982 27.9493 32.5457L28.8563 32.7023C29.4452 32.802 29.8726 32.9778 30.1433 33.2295C30.4093 33.4812 30.5422 33.8326 30.5422 34.2838C30.5422 34.7824 30.3523 35.1814 29.9676 35.49C29.5829 35.794 29.0367 35.9459 28.3196 35.9459C27.5978 35.9459 27.0232 35.7797 26.6052 35.4378C26.1873 35.0958 25.9736 34.6589 25.9736 34.127Z" fill="white"/>
<path id="Vector_25" d="M32.6197 30.3267H31.5498V35.8674H32.6197V30.3267Z" fill="white"/>
<path id="Vector_26" d="M38.2277 35.87L38.147 35.2336H38.1042C37.9997 35.3666 37.8667 35.4853 37.6958 35.5898C37.3206 35.8272 36.898 35.9459 36.4183 35.9459C35.63 35.9459 34.9651 35.68 34.4284 35.1386C33.887 34.602 33.6211 33.9228 33.6211 33.0965C33.6211 32.2749 33.887 31.5958 34.4284 31.0544C34.9651 30.5177 35.63 30.2471 36.4183 30.2471C36.7935 30.2471 37.1354 30.3088 37.4488 30.4322C37.7622 30.551 38.0187 30.7124 38.2277 30.9119C38.4366 31.1161 38.6076 31.3251 38.7358 31.5483C38.8641 31.7668 38.959 31.9947 39.0113 32.2274H37.9C37.5818 31.5673 37.0879 31.2397 36.4183 31.2397C35.9149 31.2397 35.5017 31.4105 35.174 31.7477C34.8511 32.0897 34.6896 32.5409 34.6896 33.0965C34.6896 33.6569 34.8511 34.1081 35.174 34.45C35.5017 34.7872 35.9149 34.9581 36.4183 34.9581C36.67 34.9581 36.9027 34.9153 37.1116 34.8251C37.3158 34.7349 37.4821 34.6257 37.6056 34.4975C37.7243 34.3645 37.8193 34.2363 37.8857 34.1081C37.9475 33.9799 37.9808 33.8658 37.9808 33.7708V33.7329H36.5418V32.9397H39.054V35.87H38.2277Z" fill="white"/>
<path id="Vector_27" d="M40.1836 35.8689V30.3267H41.6226L43.7217 34.1639H43.8879V30.3267H44.9612V35.8689H43.5174L41.4184 32.0269H41.2521V35.8689H40.1836Z" fill="white"/>
</g>
<g id="Group_6">
<path id="Vector_28" d="M23.6553 66.1044V47.1991L33.5983 43.2544L37.1994 46.3526V50.4441L33.5983 47.1991L28.17 49.2251V54.2533H36.6351V58.2037H28.17V62.013H37.1994V66.1044H23.6553Z" fill="white"/>
</g>
</g>
</g>
</svg>
