<svg width="61" height="96" viewBox="0 0 61 96" fill="none" xmlns="http://www.w3.org/2000/svg">
<g id="Group">
<g id="Group_2">
<g id="Group_3">
<path id="Vector" fill-rule="evenodd" clip-rule="evenodd" d="M60.8445 64.7534C60.8445 81.5484 47.2123 95.1807 30.4243 95.1807C13.6292 95.1807 -0.00292969 81.5484 -0.00292969 64.7534V17.8509L40.453 0.56543L60.8445 17.8509V64.7534Z" fill="#12B76A"/>
</g>
<g id="Group_4">
<path id="Vector_2" d="M9.81643 74.6202L10.1718 75.4659C10.0439 75.4943 9.90175 75.5015 9.7596 75.5086C9.61034 75.5157 9.43977 75.4943 9.24076 75.4517C9.03465 75.409 8.8427 75.345 8.66501 75.2526C8.48732 75.1674 8.30964 75.0253 8.13906 74.8405C7.96848 74.6486 7.82635 74.4212 7.71263 74.1582C7.46387 73.5541 7.471 72.957 7.73397 72.3671C7.98984 71.7843 8.44468 71.3507 9.10568 71.0806C9.75957 70.8105 10.385 70.7963 10.9821 71.0308C11.5791 71.2654 11.9985 71.6847 12.2543 72.2889C12.3538 72.5376 12.4107 72.7864 12.4249 73.0281C12.4391 73.2697 12.4178 73.4829 12.361 73.6748C12.3112 73.8667 12.2259 74.0444 12.1264 74.215C12.0198 74.3856 11.9132 74.5278 11.7995 74.6415C11.6928 74.7552 11.5791 74.8547 11.4583 74.94L11.11 74.0871C11.2948 73.9165 11.4298 73.6962 11.5151 73.4475C11.6075 73.1916 11.5862 72.9143 11.4654 72.6158C11.3019 72.232 11.039 71.9691 10.6694 71.8341C10.2927 71.699 9.88046 71.7202 9.43979 71.905C8.99202 72.0827 8.68636 72.36 8.51578 72.7154C8.35231 73.0779 8.34519 73.4473 8.50155 73.8311C8.62949 74.1368 8.81431 74.3501 9.05596 74.4638C9.30472 74.5846 9.55345 74.6344 9.81643 74.6202Z" fill="white"/>
<path id="Vector_3" d="M9.41895 77.4772L13.321 74.7407L15.1618 77.3634L14.4937 77.8326L13.1646 75.9349L12.2122 76.5959L13.4631 78.387L12.795 78.8489L11.5441 77.0649L10.5987 77.733L11.9279 79.6308L11.2598 80.0998L9.41895 77.4772Z" fill="white"/>
<path id="Vector_4" d="M12.4023 81.4553L15.6363 77.9585L17.2355 79.4369C17.5482 79.7212 17.7116 80.0766 17.7188 80.4888C17.7259 80.901 17.5696 81.2776 17.2497 81.6259C16.9512 81.9529 16.6029 82.1307 16.2191 82.152C15.8282 82.1734 15.487 82.0595 15.1885 81.8036L15.2028 84.0426L14.3783 83.282L14.364 81.0432L14.1579 80.8584L13.0492 82.0595L12.4023 81.4553ZM14.7123 80.2542L15.6434 81.1142C15.7642 81.2279 15.9277 81.2778 16.1124 81.2636C16.3043 81.2565 16.4679 81.1711 16.6029 81.0219C16.7522 80.8655 16.8232 80.6878 16.8232 80.503C16.8303 80.3111 16.7664 80.1547 16.6314 80.0338L15.7074 79.181L14.7123 80.2542Z" fill="white"/>
<path id="Vector_5" d="M17.3584 85.4879L19.3912 82.1402L18.1687 81.3939L18.6093 80.6689L21.8077 82.6164L21.367 83.3414L20.1446 82.6022L18.1118 85.9498L17.3584 85.4879Z" fill="white"/>
<path id="Vector_6" d="M20.998 87.3872L22.7537 82.9521L23.5781 83.2791L21.8225 87.707L20.998 87.3872Z" fill="white"/>
<path id="Vector_7" d="M23.8496 88.4129L24.8233 83.7505L27.9223 84.3972L27.7587 85.1932L25.5199 84.7312L25.2853 85.8614L27.3537 86.2949L27.1831 87.091L25.1219 86.6645L24.7168 88.5977L23.8496 88.4129Z" fill="white"/>
<path id="Vector_8" d="M28.9277 89.2171L29.1268 84.4551L30.0152 84.4905L29.8162 89.2527L28.9277 89.2171Z" fill="white"/>
<path id="Vector_9" d="M34.9596 87.1407L35.8765 87.0057C35.8623 87.1407 35.841 87.2758 35.8126 87.418C35.7771 87.5601 35.7202 87.7236 35.6278 87.9084C35.5354 88.0931 35.4216 88.2566 35.2937 88.413C35.1657 88.5622 34.988 88.6973 34.7606 88.8181C34.5332 88.9461 34.2844 89.0243 34.0001 89.067C33.3534 89.1523 32.7777 89.0029 32.2659 88.6049C31.7613 88.214 31.4628 87.6666 31.3562 86.963C31.2638 86.2594 31.3988 85.6482 31.7755 85.1294C32.1451 84.6105 32.6568 84.2978 33.3036 84.2054C33.5737 84.1698 33.8224 84.1769 34.0641 84.2196C34.2986 84.2693 34.5047 84.3405 34.6753 84.44C34.8459 84.5395 35.0023 84.6603 35.1373 84.8025C35.2795 84.9446 35.3932 85.0866 35.4714 85.2217C35.5566 85.3567 35.6206 85.4918 35.6775 85.6269L34.7677 85.7548C34.6398 85.5344 34.4692 85.3496 34.2418 85.2003C34.0143 85.0582 33.7443 85.0085 33.4245 85.0511C33.0122 85.108 32.6923 85.307 32.472 85.634C32.2446 85.9609 32.1664 86.3589 32.2375 86.8351C32.3015 87.3184 32.4934 87.6809 32.799 87.9297C33.1046 88.1856 33.467 88.2779 33.8793 88.221C34.1991 88.1784 34.455 88.0506 34.6256 87.8374C34.8033 87.6313 34.9099 87.3966 34.9596 87.1407Z" fill="white"/>
<path id="Vector_10" d="M37.0055 88.4791L36.8848 83.4185L38.093 82.9565L41.3909 86.7945L40.474 87.1499L39.7704 86.3255L37.9011 87.0434L37.9295 88.1237L37.0055 88.4791ZM37.8727 86.1763L39.2089 85.6645L37.9224 84.115L37.7945 84.1648L37.8727 86.1763Z" fill="white"/>
<path id="Vector_11" d="M43.1938 85.6659L41.0899 82.3679L39.8816 83.1356L39.4268 82.4177L42.5825 80.4062L43.0445 81.117L41.8362 81.8918L43.94 85.1896L43.1938 85.6659Z" fill="white"/>
<path id="Vector_12" d="M46.505 83.2343L43.3066 79.6948L43.9677 79.105L47.1589 82.6445L46.505 83.2343Z" fill="white"/>
<path id="Vector_13" d="M48.3529 79.631C48.7509 79.5884 49.0707 79.4035 49.3266 79.0695C49.5754 78.7425 49.6678 78.38 49.5967 77.9891C49.5256 77.5982 49.2981 77.2571 48.9143 76.9657C48.5305 76.6743 48.1396 76.5463 47.7487 76.5819C47.3506 76.6174 47.0237 76.8022 46.7749 77.1363C46.5191 77.4703 46.4338 77.8328 46.5048 78.2237C46.5759 78.6146 46.8034 78.9558 47.1872 79.2472C47.571 79.5315 47.962 79.6665 48.3529 79.631ZM45.652 78.3587C45.5525 77.7191 45.7017 77.1434 46.0926 76.6245C46.4907 76.0986 47.0095 75.8001 47.6491 75.729C48.2817 75.6579 48.8859 75.8285 49.4474 76.2621C50.016 76.6885 50.3429 77.2216 50.4496 77.8541C50.542 78.4867 50.3998 79.0695 50.0018 79.5883C49.6109 80.1072 49.092 80.4057 48.4523 80.4768C47.8126 80.5549 47.2157 80.3773 46.647 79.9508C46.0856 79.5173 45.7515 78.9913 45.652 78.3587Z" fill="white"/>
<path id="Vector_14" d="M52.1075 76.3316L47.7363 74.4269L48.2126 73.3394L51.9369 73.0623L51.9867 72.9413L48.9589 71.6194L49.3143 70.8091L53.6854 72.714L53.2092 73.8015L49.4848 74.0786L49.435 74.1994L52.4628 75.5215L52.1075 76.3316Z" fill="white"/>
</g>
<g id="Group_5">
<path id="Vector_15" d="M11.5371 26.9293V21.3872H14.2109C14.7048 21.3872 15.1037 21.5296 15.4029 21.8146C15.7068 22.0995 15.8588 22.4747 15.8588 22.9307C15.8588 23.2773 15.7638 23.5765 15.5691 23.8329C15.4694 23.9564 15.3744 24.0514 15.2794 24.1179V24.1606C15.4029 24.2271 15.5121 24.3221 15.6118 24.4456C15.8303 24.7068 15.9395 25.0202 15.9395 25.3859C15.9395 25.8465 15.7875 26.217 15.4883 26.502C15.1844 26.7869 14.7855 26.9293 14.2916 26.9293H11.5371ZM12.6057 23.6857H14.0874C14.2963 23.6857 14.4673 23.624 14.5955 23.4958C14.7237 23.3723 14.7855 23.2108 14.7855 23.0113C14.7855 22.7881 14.7237 22.6171 14.6003 22.4889C14.472 22.3607 14.3011 22.299 14.0874 22.299H12.6057V23.6857ZM12.6057 26.0175H14.1681C14.358 26.0175 14.5195 25.951 14.662 25.8132C14.7997 25.6755 14.8709 25.5046 14.8709 25.3052C14.8709 25.1057 14.7997 24.9395 14.662 24.8018C14.5195 24.664 14.358 24.5928 14.1681 24.5928H12.6057V26.0175Z" fill="white"/>
<path id="Vector_16" d="M16.2109 26.9293L18.2673 21.3872H19.8297L21.8908 26.9293H20.694L20.2619 25.7421H17.8398L17.403 26.9293H16.2109ZM18.1866 24.7922H19.9152L19.1316 22.5745H18.9701L18.1866 24.7922Z" fill="white"/>
<path id="Vector_17" d="M26.3941 24.9499H27.5055C27.4722 25.0971 27.4247 25.2538 27.363 25.4105C27.3012 25.5672 27.1967 25.7476 27.059 25.9423C26.9165 26.1418 26.7598 26.3176 26.5794 26.4695C26.3941 26.6263 26.1614 26.7498 25.867 26.8542C25.5773 26.9587 25.2591 27.0109 24.9124 27.0109C24.1241 27.0109 23.4593 26.7402 22.9226 26.2036C22.386 25.6622 22.1152 24.983 22.1152 24.1614C22.1152 23.3351 22.386 22.656 22.9226 22.1193C23.4593 21.5779 24.1241 21.312 24.9124 21.312C25.2401 21.312 25.5393 21.3548 25.8148 21.4498C26.095 21.54 26.3229 21.6587 26.5129 21.8012C26.6981 21.9437 26.8643 22.1099 27.0068 22.2951C27.1493 22.4851 27.2585 22.6607 27.3344 22.8317C27.4104 22.9979 27.4675 23.1641 27.5055 23.3304H26.3941C26.2849 23.0549 26.1092 22.8127 25.867 22.6085C25.6201 22.4043 25.3019 22.2999 24.9124 22.2999C24.409 22.2999 23.9959 22.4709 23.6729 22.808C23.3453 23.15 23.1838 23.6011 23.1838 24.1614C23.1838 24.7171 23.3453 25.1683 23.6729 25.5102C23.9959 25.8474 24.409 26.0184 24.9124 26.0184C25.3066 26.0184 25.6296 25.9138 25.8718 25.7049C26.1187 25.4912 26.2897 25.2396 26.3941 24.9499Z" fill="white"/>
<path id="Vector_18" d="M28.4336 26.9293V21.3872H29.5021V23.8805L31.4778 21.3872H32.7933L30.6134 24.1179L32.9595 26.9293H31.644L29.5021 24.3554V26.9293H28.4336Z" fill="white"/>
<path id="Vector_19" d="M33.4316 26.9293V21.3872H37.2974V22.337H34.5002V23.6857H37.1359V24.6355H34.5002V25.9795H37.2974V26.9293H33.4316Z" fill="white"/>
<path id="Vector_20" d="M38.3828 26.9293V21.3872H39.8218L41.9209 25.2291H42.0871V21.3872H43.1556V26.9293H41.7167L39.6176 23.092H39.4514V26.9293H38.3828Z" fill="white"/>
<path id="Vector_21" d="M44.4092 26.9293V21.3872H46.5083C47.2919 21.3872 47.9567 21.6531 48.4981 22.185C49.0348 22.7122 49.3054 23.3722 49.3054 24.1606C49.3054 24.9442 49.0348 25.6044 48.4981 26.1315C47.9567 26.6634 47.2919 26.9293 46.5083 26.9293H44.4092ZM45.4777 25.9415H46.5083C47.0069 25.9415 47.4201 25.7752 47.7478 25.4476C48.0755 25.1199 48.2369 24.6925 48.2369 24.1606C48.2369 23.6239 48.0755 23.1965 47.7478 22.8689C47.4201 22.5412 47.0069 22.3797 46.5083 22.3797H45.4777V25.9415Z" fill="white"/>
<path id="Vector_22" d="M22.6885 35.8684V30.3262H24.7875C25.5711 30.3262 26.236 30.5922 26.7774 31.1241C27.3141 31.6512 27.5847 32.3113 27.5847 33.0949C27.5847 33.8833 27.3141 34.5433 26.7774 35.0705C26.236 35.6024 25.5711 35.8684 24.7875 35.8684H22.6885ZM23.757 34.8758H24.7875C25.2862 34.8758 25.6994 34.7143 26.0271 34.3866C26.3548 34.059 26.5162 33.6316 26.5162 33.0949C26.5162 32.563 26.3548 32.1356 26.0271 31.8079C25.6994 31.4802 25.2862 31.314 24.7875 31.314H23.757V34.8758Z" fill="white"/>
<path id="Vector_23" d="M28.5889 35.8684V30.3262H32.4546V31.276H29.6574V32.62H32.2932V33.5698H29.6574V34.9186H32.4546V35.8684H28.5889Z" fill="white"/>
<path id="Vector_24" d="M34.9472 35.8684L32.9717 30.3262H34.1637L35.6454 34.6003H35.8116L37.2933 30.3262H38.4853L36.5097 35.8684H34.9472Z" fill="white"/>
</g>
<g id="Group_6">
<path id="Vector_25" d="M23.6475 66.104V47.1986L33.5905 43.2539L37.1916 46.3521V50.4436L33.5905 47.1986L28.1622 49.2246V54.2529H36.6272V58.2032H28.1622V62.0125H37.1916V66.104H23.6475Z" fill="white"/>
</g>
</g>
</g>
</svg>
