<svg width="61" height="96" viewBox="0 0 61 96" fill="none" xmlns="http://www.w3.org/2000/svg">
<g id="Group">
<g id="Group_2">
<g id="Group_3">
<path id="Vector" fill-rule="evenodd" clip-rule="evenodd" d="M60.8533 64.7534C60.8533 81.5484 47.2211 95.1807 30.4331 95.1807C13.638 95.1807 0.00585938 81.5484 0.00585938 64.7534V17.8509L40.4618 0.56543L60.8533 17.8509V64.7534Z" fill="#D444F1"/>
</g>
<g id="Group_4">
<path id="Vector_2" d="M9.82424 74.6197L10.1796 75.4654C10.0517 75.4938 9.90956 75.501 9.76741 75.5081C9.61815 75.5152 9.44759 75.4938 9.24858 75.4512C9.04246 75.4085 8.85051 75.3446 8.67283 75.2522C8.49514 75.1669 8.31746 75.0248 8.14688 74.84C7.9763 74.6481 7.83416 74.4207 7.72044 74.1577C7.47168 73.5536 7.47881 72.9566 7.74179 72.3666C7.99766 71.7838 8.45249 71.3502 9.11349 71.0801C9.76738 70.81 10.3929 70.7958 10.9899 71.0303C11.5869 71.2649 12.0063 71.6842 12.2622 72.2884C12.3617 72.5371 12.4185 72.7859 12.4327 73.0276C12.4469 73.2692 12.4256 73.4824 12.3688 73.6743C12.319 73.8662 12.2337 74.0439 12.1342 74.2145C12.0276 74.3851 11.921 74.5273 11.8073 74.641C11.7007 74.7547 11.5869 74.8542 11.4661 74.9395L11.1179 74.0866C11.3027 73.916 11.4377 73.6958 11.5229 73.447C11.6153 73.1911 11.5941 72.9138 11.4732 72.6153C11.3098 72.2315 11.0468 71.9686 10.6772 71.8336C10.3005 71.6985 9.88827 71.7197 9.44761 71.9045C8.99983 72.0822 8.69418 72.3595 8.5236 72.7149C8.36012 73.0774 8.353 73.4468 8.50937 73.8307C8.6373 74.1363 8.82212 74.3496 9.06377 74.4633C9.31254 74.5841 9.56126 74.6339 9.82424 74.6197Z" fill="white"/>
<path id="Vector_3" d="M9.42773 77.4772L13.3298 74.7407L15.1706 77.3634L14.5025 77.8326L13.1734 75.9349L12.2209 76.5959L13.4719 78.387L12.8038 78.8489L11.5529 77.0649L10.6075 77.733L11.9367 79.6308L11.2686 80.0998L9.42773 77.4772Z" fill="white"/>
<path id="Vector_4" d="M12.4102 81.4553L15.6441 77.9585L17.2433 79.4369C17.556 79.7212 17.7195 80.0766 17.7266 80.4888C17.7337 80.901 17.5774 81.2776 17.2575 81.6259C16.959 81.9529 16.6107 82.1307 16.2269 82.152C15.836 82.1734 15.4948 82.0595 15.1963 81.8036L15.2106 84.0426L14.3861 83.282L14.3718 81.0432L14.1657 80.8584L13.057 82.0595L12.4102 81.4553ZM14.7201 80.2542L15.6512 81.1142C15.7721 81.2279 15.9355 81.2778 16.1203 81.2636C16.3122 81.2565 16.4757 81.1711 16.6107 81.0219C16.76 80.8655 16.831 80.6878 16.831 80.503C16.8381 80.3111 16.7742 80.1547 16.6392 80.0338L15.7152 79.181L14.7201 80.2542Z" fill="white"/>
<path id="Vector_5" d="M17.3652 85.4879L19.3981 82.1402L18.1755 81.3939L18.6162 80.6689L21.8145 82.6164L21.3739 83.3414L20.1514 82.6022L18.1187 85.9498L17.3652 85.4879Z" fill="white"/>
<path id="Vector_6" d="M21.0059 87.3867L22.7615 82.9517L23.5859 83.2786L21.8304 87.7065L21.0059 87.3867Z" fill="white"/>
<path id="Vector_7" d="M23.8574 88.4129L24.8311 83.7505L27.9301 84.3972L27.7666 85.1932L25.5278 84.7312L25.2932 85.8614L27.3615 86.2949L27.1909 87.091L25.1297 86.6645L24.7246 88.5977L23.8574 88.4129Z" fill="white"/>
<path id="Vector_8" d="M28.9355 89.2171L29.1346 84.4551L30.023 84.4905L29.824 89.2527L28.9355 89.2171Z" fill="white"/>
<path id="Vector_9" d="M34.9674 87.1407L35.8843 87.0057C35.8701 87.1407 35.8488 87.2758 35.8204 87.418C35.7849 87.5601 35.728 87.7236 35.6356 87.9084C35.5432 88.0931 35.4294 88.2566 35.3015 88.413C35.1735 88.5622 34.9959 88.6973 34.7684 88.8181C34.541 88.9461 34.2923 89.0243 34.0079 89.067C33.3612 89.1523 32.7855 89.0029 32.2738 88.6049C31.7691 88.214 31.4706 87.6666 31.364 86.963C31.2716 86.2594 31.4066 85.6482 31.7833 85.1294C32.1529 84.6105 32.6646 84.2978 33.3114 84.2054C33.5815 84.1698 33.8302 84.1769 34.0719 84.2196C34.3064 84.2693 34.5125 84.3405 34.6831 84.44C34.8537 84.5395 35.0101 84.6603 35.1451 84.8025C35.2873 84.9446 35.401 85.0866 35.4792 85.2217C35.5645 85.3567 35.6285 85.4918 35.6853 85.6269L34.7755 85.7548C34.6476 85.5344 34.477 85.3496 34.2496 85.2003C34.0221 85.0582 33.7521 85.0085 33.4323 85.0511C33.0201 85.108 32.7001 85.307 32.4798 85.634C32.2524 85.9609 32.1742 86.3589 32.2453 86.8351C32.3093 87.3184 32.5012 87.6809 32.8068 87.9297C33.1124 88.1856 33.4749 88.2779 33.8871 88.221C34.2069 88.1784 34.4628 88.0506 34.6334 87.8374C34.8111 87.6313 34.9177 87.3966 34.9674 87.1407Z" fill="white"/>
<path id="Vector_10" d="M37.0134 88.4791L36.8926 83.4185L38.1008 82.9565L41.3987 86.7945L40.4818 87.1499L39.7782 86.3255L37.9089 87.0434L37.9374 88.1237L37.0134 88.4791ZM37.8805 86.1763L39.2167 85.6645L37.9302 84.115L37.8023 84.1648L37.8805 86.1763Z" fill="white"/>
<path id="Vector_11" d="M43.2006 85.6654L41.0967 82.3674L39.8885 83.1351L39.4336 82.4172L42.5893 80.4058L43.0513 81.1165L41.8431 81.8913L43.9468 85.1891L43.2006 85.6654Z" fill="white"/>
<path id="Vector_12" d="M46.5128 83.2338L43.3145 79.6943L43.9755 79.1045L47.1668 82.644L46.5128 83.2338Z" fill="white"/>
<path id="Vector_13" d="M48.3617 79.631C48.7597 79.5884 49.0795 79.4035 49.3354 79.0695C49.5841 78.7425 49.6765 78.38 49.6055 77.9891C49.5344 77.5982 49.3069 77.2571 48.9231 76.9657C48.5393 76.6743 48.1484 76.5463 47.7575 76.5819C47.3594 76.6174 47.0325 76.8022 46.7837 77.1363C46.5279 77.4703 46.4426 77.8328 46.5136 78.2237C46.5847 78.6146 46.8122 78.9558 47.196 79.2472C47.5798 79.5315 47.9707 79.6665 48.3617 79.631ZM45.6608 78.3587C45.5613 77.7191 45.7105 77.1434 46.1014 76.6245C46.4995 76.0986 47.0183 75.8001 47.6579 75.729C48.2905 75.6579 48.8947 75.8285 49.4562 76.2621C50.0248 76.6885 50.3517 77.2216 50.4583 77.8541C50.5507 78.4867 50.4086 79.0695 50.0106 79.5883C49.6197 80.1072 49.1008 80.4057 48.4611 80.4768C47.8214 80.5549 47.2244 80.3773 46.6558 79.9508C46.0943 79.5173 45.7603 78.9913 45.6608 78.3587Z" fill="white"/>
<path id="Vector_14" d="M52.1153 76.3316L47.7441 74.4269L48.2204 73.3394L51.9447 73.0623L51.9945 72.9413L48.9667 71.6194L49.3221 70.8091L53.6932 72.714L53.217 73.8015L49.4926 74.0786L49.4428 74.1994L52.4707 75.5215L52.1153 76.3316Z" fill="white"/>
</g>
<g id="Group_5">
<path id="Vector_15" d="M10.9551 26.9293V21.3872H13.5481C14.0895 21.3872 14.5264 21.5581 14.8588 21.8953C15.1913 22.2325 15.3574 22.6837 15.3574 23.2488C15.3574 23.8139 15.1913 24.2651 14.8588 24.6023C14.5264 24.9395 14.0895 25.1104 13.5481 25.1104H12.0236V26.9293H10.9551ZM12.0236 24.1179H13.5053C13.7428 24.1179 13.9327 24.0419 14.0752 23.89C14.2177 23.738 14.2889 23.5242 14.2889 23.2488C14.2889 22.9734 14.2177 22.7596 14.0752 22.6076C13.9327 22.4557 13.7428 22.3797 13.5053 22.3797H12.0236V24.1179Z" fill="white"/>
<path id="Vector_16" d="M16.3242 26.9293V21.3872H18.9552C19.4729 21.3872 19.905 21.5628 20.2517 21.9048C20.5984 22.2515 20.7693 22.6979 20.7693 23.2488C20.7693 23.7664 20.6079 24.1843 20.2802 24.512C19.9525 24.8349 19.5536 25.0107 19.0787 25.0297L20.9356 26.9293H19.5726L17.7252 25.0297H17.3928V26.9293H16.3242ZM17.3928 24.0799H18.9172C19.1262 24.0799 19.3066 23.9991 19.4633 23.8377C19.6201 23.6762 19.696 23.4815 19.696 23.2488C19.696 22.9971 19.6201 22.7881 19.4681 22.6219C19.3161 22.4604 19.131 22.3797 18.9172 22.3797H17.3928V24.0799Z" fill="white"/>
<path id="Vector_17" d="M23.1241 25.515C23.447 25.8522 23.8602 26.0184 24.3636 26.0184C24.8718 26.0184 25.2849 25.8474 25.6079 25.5102C25.9308 25.1683 26.0923 24.7171 26.0923 24.1614C26.0923 23.6011 25.9308 23.15 25.6079 22.808C25.2849 22.4709 24.8718 22.2999 24.3636 22.2999C23.8602 22.2999 23.447 22.4709 23.1241 22.808C22.7964 23.15 22.6349 23.6011 22.6349 24.1614C22.6349 24.7171 22.7964 25.1683 23.1241 25.515ZM22.3737 22.1193C22.9104 21.5779 23.5753 21.312 24.3636 21.312C25.1567 21.312 25.8215 21.5779 26.3582 22.1193C26.8948 22.656 27.1656 23.3351 27.1656 24.1614C27.1656 24.983 26.8948 25.6622 26.3582 26.2036C25.8215 26.7402 25.1567 27.0109 24.3636 27.0109C23.5753 27.0109 22.9104 26.7402 22.3737 26.2036C21.8371 25.6622 21.5664 24.983 21.5664 24.1614C21.5664 23.3351 21.8371 22.656 22.3737 22.1193Z" fill="white"/>
<path id="Vector_18" d="M28.166 26.9293V21.3872H30.2651C31.0487 21.3872 31.7136 21.6531 32.2549 22.185C32.7963 22.7122 33.067 23.3722 33.067 24.1606C33.067 24.9442 32.7963 25.6044 32.2549 26.1315C31.7136 26.6634 31.0487 26.9293 30.2651 26.9293H28.166ZM29.2393 25.9415H30.2651C30.7637 25.9415 31.1769 25.7752 31.5046 25.4476C31.8322 25.1199 31.9937 24.6925 31.9937 24.1606C31.9937 23.6239 31.8322 23.1965 31.5046 22.8689C31.1769 22.5412 30.7637 22.3797 30.2651 22.3797H29.2393V25.9415Z" fill="white"/>
<path id="Vector_19" d="M34.0273 24.6735V21.3872H35.1006V24.6735C35.1006 25.0629 35.2241 25.3859 35.4758 25.6376C35.7275 25.894 36.041 26.0175 36.4161 26.0175C36.7866 26.0175 37.1 25.894 37.3517 25.6376C37.6081 25.3859 37.7316 25.0629 37.7316 24.6735V21.3872H38.8049V24.6735C38.8049 25.3859 38.5864 25.9511 38.1542 26.3737C37.7173 26.7964 37.138 27.01 36.4161 27.01C35.6895 27.01 35.1101 26.7964 34.678 26.3737C34.2458 25.9511 34.0273 25.3859 34.0273 24.6735Z" fill="white"/>
<path id="Vector_20" d="M44.0473 24.9499H45.1586C45.1254 25.0971 45.0779 25.2538 45.0114 25.4105C44.9497 25.5672 44.8499 25.7476 44.7075 25.9423C44.5697 26.1418 44.4083 26.3176 44.2278 26.4695C44.0473 26.6263 43.8099 26.7498 43.5202 26.8542C43.2305 26.9587 42.9123 27.0109 42.5656 27.0109C41.7725 27.0109 41.1124 26.7402 40.571 26.2036C40.0344 25.6622 39.7637 24.983 39.7637 24.1614C39.7637 23.3351 40.0344 22.656 40.571 22.1193C41.1124 21.5779 41.7725 21.312 42.5656 21.312C42.8886 21.312 43.1878 21.3548 43.468 21.4498C43.7434 21.54 43.9761 21.6587 44.1613 21.8012C44.3465 21.9437 44.5128 22.1099 44.6552 22.2951C44.7977 22.4851 44.9069 22.6607 44.9829 22.8317C45.0636 22.9979 45.1206 23.1641 45.1586 23.3304H44.0473C43.9381 23.0549 43.7576 22.8127 43.5154 22.6085C43.2732 22.4043 42.9551 22.2999 42.5656 22.2999C42.0575 22.2999 41.6443 22.4709 41.3214 22.808C40.9984 23.15 40.837 23.6011 40.837 24.1614C40.837 24.7171 40.9984 25.1683 41.3214 25.5102C41.6443 25.8474 42.0575 26.0184 42.5656 26.0184C42.9598 26.0184 43.278 25.9138 43.5249 25.7049C43.7671 25.4912 43.9429 25.2396 44.0473 24.9499Z" fill="white"/>
<path id="Vector_21" d="M47.1955 26.9293V22.3797H45.4668V21.3872H49.9974V22.3797H48.2688V26.9293H47.1955Z" fill="white"/>
<path id="Vector_22" d="M10.0664 35.8684V30.3262H11.795L13.1533 34.2062H13.3195L14.6778 30.3262H16.4064V35.8684H15.3379V32.0264H15.1717L13.8134 35.8684H12.6594L11.3012 32.0264H11.1397V35.8684H10.0664Z" fill="white"/>
<path id="Vector_23" d="M17.043 35.8684L19.0993 30.3262H20.6617L22.7228 35.8684H21.5261L21.0892 34.6811H18.6719L18.235 35.8684H17.043ZM19.0186 33.7313H20.7425L19.9637 31.5134H19.7974L19.0186 33.7313Z" fill="white"/>
<path id="Vector_24" d="M23.3555 35.8684V30.3262H24.7944L26.8935 34.1634H27.0597V30.3262H28.1282V35.8684H26.6893L24.5902 32.0264H24.424V35.8684H23.3555Z" fill="white"/>
<path id="Vector_25" d="M28.7617 35.8684L30.818 30.3262H32.3805L34.4416 35.8684H33.2496L32.8126 34.6811H30.3906L29.9537 35.8684H28.7617ZM30.7373 33.7313H32.4659L31.6823 31.5134H31.5209L30.7373 33.7313Z" fill="white"/>
<path id="Vector_26" d="M39.2832 35.8695L39.1977 35.2331H39.1597C39.0552 35.3661 38.9175 35.4848 38.7465 35.5893C38.3714 35.8267 37.9487 35.9455 37.4691 35.9455C36.6807 35.9455 36.0158 35.6795 35.4792 35.1381C34.9425 34.6015 34.6719 33.9224 34.6719 33.096C34.6719 32.2744 34.9425 31.5953 35.4792 31.0539C36.0158 30.5173 36.6807 30.2466 37.4691 30.2466C37.8443 30.2466 38.1862 30.3083 38.4996 30.4317C38.8131 30.5505 39.0742 30.7119 39.2832 30.9114C39.4874 31.1156 39.6584 31.3246 39.7866 31.5478C39.9148 31.7663 40.0098 31.9942 40.062 32.2269H38.9508C38.6326 31.5668 38.1387 31.2392 37.4691 31.2392C36.9657 31.2392 36.5525 31.4101 36.2296 31.7472C35.9019 32.0892 35.7404 32.5404 35.7404 33.096C35.7404 33.6564 35.9019 34.1076 36.2296 34.4495C36.5525 34.7867 36.9657 34.9576 37.4691 34.9576C37.7208 34.9576 37.9535 34.9149 38.1624 34.8246C38.3714 34.7344 38.5329 34.6252 38.6563 34.497C38.7751 34.364 38.87 34.2359 38.9365 34.1076C39.003 33.9794 39.0363 33.8653 39.0363 33.7703V33.7324H37.5926V32.9393H40.1048V35.8695H39.2832Z" fill="white"/>
<path id="Vector_27" d="M41.2285 35.8684V30.3262H45.099V31.276H42.3018V32.62H44.9327V33.5698H42.3018V34.9186H45.099V35.8684H41.2285Z" fill="white"/>
<path id="Vector_28" d="M46.1855 35.8684V30.3262H48.8213C49.3342 30.3262 49.7663 30.5019 50.113 30.8439C50.4597 31.1905 50.6307 31.637 50.6307 32.1879C50.6307 32.7055 50.4692 33.1234 50.1415 33.4511C49.8138 33.774 49.4149 33.945 48.9448 33.9688L50.7921 35.8684H49.4386L47.5818 33.9688H47.2541V35.8684H46.1855ZM47.2541 33.019H48.7785C48.9875 33.019 49.1679 32.9382 49.3247 32.7768C49.4814 32.6153 49.5621 32.4206 49.5621 32.1879C49.5621 31.9314 49.4814 31.7272 49.3294 31.561C49.1775 31.3995 48.9922 31.314 48.7785 31.314H47.2541V33.019Z" fill="white"/>
</g>
<g id="Group_6">
<path id="Vector_29" d="M23.6562 66.104V47.1986L33.5993 43.2539L37.2004 46.3521V50.4436L33.5993 47.1986L28.171 49.2246V54.2529H36.636V58.2032H28.171V62.0125H37.2004V66.104H23.6562Z" fill="white"/>
</g>
</g>
</g>
</svg>
