<svg width="61" height="96" viewBox="0 0 61 96" fill="none" xmlns="http://www.w3.org/2000/svg">
<g id="Group">
<g id="Group_2">
<g id="Group_3">
<path id="Vector" fill-rule="evenodd" clip-rule="evenodd" d="M60.8455 64.7539C60.8455 81.5489 47.2132 95.1812 30.4253 95.1812C13.6302 95.1812 -0.00195312 81.5489 -0.00195312 64.7539V17.8514L40.454 0.565918L60.8455 17.8514V64.7539Z" fill="#FDB022"/>
</g>
<g id="Group_4">
<path id="Vector_2" d="M9.81838 74.6206L10.1738 75.4664C10.0458 75.4948 9.9037 75.502 9.76155 75.5091C9.61229 75.5162 9.44173 75.4948 9.24272 75.4522C9.0366 75.4095 8.84465 75.3455 8.66697 75.2531C8.48928 75.1678 8.3116 75.0258 8.14102 74.841C7.97044 74.6491 7.8283 74.4217 7.71458 74.1587C7.46582 73.5546 7.47295 72.9575 7.73593 72.3676C7.9918 71.7848 8.44663 71.3512 9.10763 71.0811C9.76152 70.811 10.387 70.7968 10.984 71.0313C11.5811 71.2659 12.0004 71.6852 12.2563 72.2894C12.3558 72.5381 12.4127 72.7869 12.4269 73.0286C12.4411 73.2702 12.4198 73.4834 12.3629 73.6753C12.3132 73.8672 12.2278 74.0449 12.1283 74.2155C12.0217 74.386 11.9151 74.5283 11.8014 74.642C11.6948 74.7557 11.5811 74.8552 11.4603 74.9404L11.112 74.0876C11.2968 73.917 11.4318 73.6967 11.5171 73.448C11.6095 73.1921 11.5882 72.9148 11.4674 72.6163C11.3039 72.2325 11.0409 71.9696 10.6713 71.8346C10.2946 71.6995 9.88241 71.7207 9.44175 71.9055C8.99397 72.0832 8.68832 72.3605 8.51774 72.7159C8.35426 73.0784 8.34714 73.4478 8.50351 73.8316C8.63144 74.1373 8.81626 74.3506 9.05791 74.4643C9.30668 74.5851 9.5554 74.6349 9.81838 74.6206Z" fill="white"/>
<path id="Vector_3" d="M9.42188 77.4782L13.3239 74.7417L15.1647 77.3643L14.4967 77.8335L13.1676 75.9359L12.2151 76.5968L13.466 78.3879L12.7979 78.8499L11.547 77.0659L10.6017 77.7339L11.9308 79.6318L11.2627 80.1008L9.42188 77.4782Z" fill="white"/>
<path id="Vector_4" d="M12.4043 81.4558L15.6383 77.959L17.2374 79.4374C17.5502 79.7217 17.7136 80.0771 17.7207 80.4893C17.7278 80.9015 17.5715 81.2781 17.2517 81.6264C16.9532 81.9533 16.6048 82.1312 16.221 82.1525C15.8301 82.1738 15.489 82.06 15.1905 81.8041L15.2047 84.0431L14.3802 83.2825L14.366 81.0437L14.1598 80.8589L13.0511 82.06L12.4043 81.4558ZM14.7142 80.2547L15.6454 81.1147C15.7662 81.2284 15.9296 81.2783 16.1144 81.2641C16.3063 81.257 16.4698 81.1716 16.6049 81.0224C16.7541 80.866 16.8252 80.6883 16.8252 80.5035C16.8323 80.3116 16.7684 80.1552 16.6333 80.0343L15.7093 79.1815L14.7142 80.2547Z" fill="white"/>
<path id="Vector_5" d="M17.3594 85.4884L19.3922 82.1407L18.1696 81.3944L18.6103 80.6694L21.8087 82.6169L21.368 83.3419L20.1456 82.6027L18.1128 85.9503L17.3594 85.4884Z" fill="white"/>
<path id="Vector_6" d="M21 87.3877L22.7556 82.9526L23.58 83.2796L21.8245 87.7075L21 87.3877Z" fill="white"/>
<path id="Vector_7" d="M23.8516 88.4134L24.8253 83.751L27.9242 84.3977L27.7607 85.1936L25.5219 84.7317L25.2873 85.8619L27.3556 86.2953L27.185 87.0915L25.1238 86.665L24.7187 88.5982L23.8516 88.4134Z" fill="white"/>
<path id="Vector_8" d="M28.9297 89.2176L29.1287 84.4556L30.0172 84.491L29.8181 89.2531L28.9297 89.2176Z" fill="white"/>
<path id="Vector_9" d="M34.9616 87.1412L35.8785 87.0062C35.8643 87.1412 35.843 87.2763 35.8145 87.4185C35.779 87.5606 35.7221 87.724 35.6297 87.9088C35.5373 88.0936 35.4236 88.2571 35.2956 88.4134C35.1677 88.5627 34.99 88.6978 34.7626 88.8186C34.5351 88.9466 34.2864 89.0248 34.0021 89.0675C33.3553 89.1527 32.7796 89.0034 32.2679 88.6054C31.7633 88.2145 31.4647 87.6671 31.3581 86.9635C31.2657 86.2598 31.4007 85.6487 31.7774 85.1299C32.147 84.611 32.6588 84.2983 33.3056 84.2059C33.5757 84.1703 33.8244 84.1774 34.066 84.2201C34.3006 84.2698 34.5067 84.341 34.6773 84.4405C34.8479 84.54 35.0042 84.6608 35.1393 84.8029C35.2814 84.9451 35.3951 85.0871 35.4733 85.2222C35.5586 85.3572 35.6226 85.4923 35.6795 85.6274L34.7697 85.7552C34.6417 85.5349 34.4712 85.3501 34.2437 85.2008C34.0163 85.0587 33.7463 85.009 33.4264 85.0516C33.0142 85.1085 32.6943 85.3075 32.474 85.6345C32.2465 85.9614 32.1684 86.3594 32.2394 86.8356C32.3034 87.3189 32.4953 87.6814 32.801 87.9302C33.1066 88.1861 33.469 88.2784 33.8812 88.2215C34.2011 88.1789 34.457 88.0511 34.6276 87.8379C34.8052 87.6318 34.9118 87.397 34.9616 87.1412Z" fill="white"/>
<path id="Vector_10" d="M37.0075 88.4796L36.8867 83.419L38.095 82.957L41.3929 86.795L40.476 87.1504L39.7723 86.326L37.903 87.0439L37.9315 88.1242L37.0075 88.4796ZM37.8747 86.1768L39.2108 85.665L37.9244 84.1155L37.7964 84.1653L37.8747 86.1768Z" fill="white"/>
<path id="Vector_11" d="M43.1948 85.6664L41.0909 82.3684L39.8826 83.1361L39.4277 82.4182L42.5834 80.4067L43.0454 81.1175L41.8372 81.8923L43.941 85.1901L43.1948 85.6664Z" fill="white"/>
<path id="Vector_12" d="M46.507 83.2348L43.3086 79.6953L43.9696 79.1055L47.1609 82.645L46.507 83.2348Z" fill="white"/>
<path id="Vector_13" d="M48.3558 79.6315C48.7538 79.5889 49.0737 79.404 49.3295 79.07C49.5783 78.743 49.6707 78.3805 49.5996 77.9896C49.5285 77.5987 49.301 77.2576 48.9172 76.9662C48.5334 76.6748 48.1425 76.5468 47.7516 76.5823C47.3536 76.6179 47.0266 76.8027 46.7779 77.1368C46.522 77.4708 46.4367 77.8333 46.5078 78.2242C46.5789 78.6151 46.8064 78.9563 47.1902 79.2477C47.574 79.532 47.9649 79.667 48.3558 79.6315ZM45.6549 78.3592C45.5554 77.7195 45.7047 77.1439 46.0956 76.625C46.4936 76.0991 47.0124 75.8006 47.6521 75.7295C48.2846 75.6584 48.8888 75.829 49.4503 76.2625C50.0189 76.689 50.3459 77.2221 50.4525 77.8546C50.5449 78.4872 50.4027 79.07 50.0047 79.5888C49.6138 80.1077 49.0949 80.4062 48.4552 80.4773C47.8156 80.5554 47.2186 80.3778 46.65 79.9513C46.0885 79.5177 45.7544 78.9918 45.6549 78.3592Z" fill="white"/>
<path id="Vector_14" d="M52.1094 76.3321L47.7383 74.4274L48.2145 73.3399L51.9388 73.0628L51.9886 72.9418L48.9608 71.6199L49.3162 70.8096L53.6874 72.7145L53.2111 73.802L49.4868 74.0791L49.437 74.1999L52.4648 75.5219L52.1094 76.3321Z" fill="white"/>
</g>
<g id="Group_5">
<path id="Vector_15" d="M8.59375 26.9298V21.3877H12.4215V22.3375H9.66704V23.6862H12.2173V24.636H9.66704V26.9298H8.59375Z" fill="white"/>
<path id="Vector_16" d="M13.4277 26.9298V21.3877H16.0587C16.5764 21.3877 17.0085 21.5633 17.3552 21.9053C17.6971 22.2519 17.8728 22.6984 17.8728 23.2493C17.8728 23.7669 17.7066 24.1848 17.3837 24.5125C17.056 24.8354 16.6571 25.0112 16.1822 25.0302L18.0391 26.9298H16.6761L14.8287 25.0302H14.4963V26.9298H13.4277ZM14.4963 24.0804H16.0207C16.2297 24.0804 16.4101 23.9996 16.5669 23.8382C16.7236 23.6767 16.7996 23.482 16.7996 23.2493C16.7996 22.9976 16.7236 22.7886 16.5716 22.6224C16.4196 22.4609 16.2344 22.3802 16.0207 22.3802H14.4963V24.0804Z" fill="white"/>
<path id="Vector_17" d="M20.2229 25.5155C20.5506 25.8526 20.9637 26.0189 21.4671 26.0189C21.9753 26.0189 22.3884 25.8479 22.7114 25.5107C23.0343 25.1688 23.1958 24.7176 23.1958 24.1619C23.1958 23.6015 23.0343 23.1505 22.7114 22.8085C22.3884 22.4713 21.9753 22.3003 21.4671 22.3003C20.9637 22.3003 20.5506 22.4713 20.2229 22.8085C19.8999 23.1505 19.7385 23.6015 19.7385 24.1619C19.7385 24.7176 19.8999 25.1688 20.2229 25.5155ZM19.4772 22.1198C20.0139 21.5784 20.6788 21.3125 21.4671 21.3125C22.2602 21.3125 22.9251 21.5784 23.4617 22.1198C23.9983 22.6565 24.269 23.3356 24.269 24.1619C24.269 24.9835 23.9983 25.6627 23.4617 26.2041C22.9251 26.7407 22.2602 27.0114 21.4671 27.0114C20.6788 27.0114 20.0139 26.7407 19.4772 26.2041C18.9406 25.6627 18.6699 24.9835 18.6699 24.1619C18.6699 23.3356 18.9406 22.6565 19.4772 22.1198Z" fill="white"/>
<path id="Vector_18" d="M25.2695 26.9298V21.3877H26.7085L28.8076 25.2296H28.9738V21.3877H30.0423V26.9298H28.6033L26.5043 23.0925H26.3381V26.9298H25.2695Z" fill="white"/>
<path id="Vector_19" d="M32.5735 26.9298V22.3802H30.8496V21.3877H35.3754V22.3802H33.6468V26.9298H32.5735Z" fill="white"/>
<path id="Vector_20" d="M36.1719 26.9298V21.3877H40.0424V22.3375H37.2404V23.6862H39.8762V24.636H37.2404V25.98H40.0424V26.9298H36.1719Z" fill="white"/>
<path id="Vector_21" d="M41.123 26.9298V21.3877H42.5667L44.6658 25.2296H44.832V21.3877H45.9006V26.9298H44.4568L42.3625 23.0925H42.1963V26.9298H41.123Z" fill="white"/>
<path id="Vector_22" d="M47.1504 26.9298V21.3877H49.2495C50.0331 21.3877 50.6979 21.6536 51.2393 22.1855C51.7807 22.7127 52.0514 23.3727 52.0514 24.1611C52.0514 24.9447 51.7807 25.6049 51.2393 26.132C50.6979 26.6639 50.0331 26.9298 49.2495 26.9298H47.1504ZM48.2237 25.942H49.2495C49.7481 25.942 50.1613 25.7757 50.489 25.448C50.8167 25.1204 50.9782 24.693 50.9782 24.1611C50.9782 23.6244 50.8167 23.197 50.489 22.8693C50.1613 22.5417 49.7481 22.3802 49.2495 22.3802H48.2237V25.942Z" fill="white"/>
<path id="Vector_23" d="M22.5879 35.8689V30.3267H24.6869C25.4705 30.3267 26.1354 30.5927 26.6768 31.1246C27.2135 31.6517 27.4841 32.3118 27.4841 33.0954C27.4841 33.8837 27.2135 34.5438 26.6768 35.071C26.1354 35.6029 25.4705 35.8689 24.6869 35.8689H22.5879ZM23.6564 34.8763H24.6869C25.1856 34.8763 25.5988 34.7148 25.9265 34.3871C26.2542 34.0594 26.4156 33.632 26.4156 33.0954C26.4156 32.5635 26.2542 32.1361 25.9265 31.8084C25.5988 31.4807 25.1856 31.3145 24.6869 31.3145H23.6564V34.8763Z" fill="white"/>
<path id="Vector_24" d="M28.4922 35.8689V30.3267H32.3579V31.2765H29.5607V32.6205H32.1965V33.5703H29.5607V34.9191H32.3579V35.8689H28.4922Z" fill="white"/>
<path id="Vector_25" d="M34.8447 35.8689L32.8691 30.3267H34.0612L35.5429 34.6008H35.7091L37.1908 30.3267H38.3828L36.4072 35.8689H34.8447Z" fill="white"/>
</g>
<g id="Group_6">
<path id="Vector_26" d="M23.6484 66.1044V47.1991L33.5915 43.2544L37.1926 46.3526V50.4441L33.5915 47.1991L28.1631 49.2251V54.2533H36.6282V58.2037H28.1631V62.013H37.1926V66.1044H23.6484Z" fill="white"/>
</g>
</g>
</g>
</svg>
