<svg width="30" height="31" viewBox="0 0 30 31" fill="none" xmlns="http://www.w3.org/2000/svg">
<g id="hourglass-01">
<path id="Icon" d="M15 15.4883L9.65889 11.0374C8.86533 10.3761 8.46855 10.0454 8.1833 9.64008C7.93056 9.28094 7.74286 8.88021 7.62877 8.45613C7.5 7.97751 7.5 7.46102 7.5 6.42803V2.98828M15 15.4883L20.3411 11.0374C21.1347 10.3761 21.5315 10.0454 21.8167 9.64008C22.0694 9.28094 22.2571 8.88021 22.3712 8.45613C22.5 7.97751 22.5 7.46102 22.5 6.42803V2.98828M15 15.4883L9.65889 19.9392C8.86533 20.6005 8.46855 20.9312 8.1833 21.3365C7.93056 21.6956 7.74286 22.0964 7.62877 22.5204C7.5 22.999 7.5 23.5155 7.5 24.5485V27.9883M15 15.4883L20.3411 19.9392C21.1347 20.6005 21.5315 20.9312 21.8167 21.3365C22.0694 21.6956 22.2571 22.0964 22.3712 22.5204C22.5 22.999 22.5 23.5155 22.5 24.5485V27.9883M5 2.98828H25M5 27.9883H25" stroke="#475467" stroke-width="2" stroke-linecap="round" stroke-linejoin="round"/>
</g>
</svg>
