<svg width="21" height="21" viewBox="0 0 21 21" fill="none" xmlns="http://www.w3.org/2000/svg">
<g id="Star" clip-path="url(#clip0_5_1995)">
<path id="Star_2" d="M10.0383 2.09825C10.2091 1.6876 10.7909 1.6876 10.9617 2.09825L13.0278 7.06572C13.0998 7.23884 13.2626 7.35713 13.4495 7.37211L18.8123 7.80204C19.2556 7.83759 19.4354 8.39084 19.0976 8.68017L15.0117 12.1802C14.8693 12.3022 14.8071 12.4935 14.8506 12.6759L16.0989 17.9091C16.2021 18.3417 15.7315 18.6837 15.3519 18.4518L10.7606 15.6475C10.6006 15.5497 10.3994 15.5497 10.2394 15.6475L5.64806 18.4518C5.26851 18.6837 4.79788 18.3417 4.90108 17.9091L6.14939 12.6759C6.19289 12.4935 6.1307 12.3022 5.98831 12.1802L1.90241 8.68017C1.56464 8.39084 1.74441 7.83759 2.18773 7.80204L7.55054 7.37211C7.73744 7.35713 7.90024 7.23884 7.97225 7.06572L10.0383 2.09825Z" fill="#FEC84B"/>
</g>
<defs>
<clipPath id="clip0_5_1995">
<rect width="20" height="20" fill="white" transform="translate(0.5 0.488281)"/>
</clipPath>
</defs>
</svg>
