<svg width="30" height="31" viewBox="0 0 30 31" fill="none" xmlns="http://www.w3.org/2000/svg">
<g id="users-03">
<path id="Icon" d="M22.5 20.0368C24.3199 20.951 25.8802 22.4182 27.0191 24.2528C27.2446 24.6161 27.3574 24.7977 27.3964 25.0493C27.4756 25.5604 27.126 26.1889 26.65 26.3912C26.4157 26.4907 26.1521 26.4907 25.625 26.4907M20 14.656C21.8522 13.7356 23.125 11.8243 23.125 9.61572C23.125 7.40715 21.8522 5.49586 20 4.57542M17.5 9.61572C17.5 12.7223 14.9816 15.2407 11.875 15.2407C8.76844 15.2407 6.25004 12.7223 6.25004 9.61572C6.25004 6.50912 8.76844 3.99072 11.875 3.99072C14.9816 3.99072 17.5 6.50912 17.5 9.61572ZM3.19908 23.9136C5.19196 20.9214 8.33675 18.9907 11.875 18.9907C15.4133 18.9907 18.5581 20.9214 20.551 23.9136C20.9876 24.5692 21.2059 24.8969 21.1807 25.3156C21.1612 25.6416 20.9475 26.0407 20.687 26.2377C20.3524 26.4907 19.8923 26.4907 18.9721 26.4907H4.77799C3.85775 26.4907 3.39764 26.4907 3.06309 26.2377C2.8026 26.0407 2.5889 25.6416 2.56933 25.3156C2.5442 24.8969 2.76249 24.5692 3.19908 23.9136Z" stroke="#475467" stroke-width="2" stroke-linecap="round" stroke-linejoin="round"/>
</g>
</svg>
