<svg width="30" height="31" viewBox="0 0 30 31" fill="none" xmlns="http://www.w3.org/2000/svg">
<g id="user-square">
<path id="Icon" d="M5.00003 27.7601C5.75325 27.9883 6.77061 27.9883 8.5 27.9883H21.5C23.2294 27.9883 24.2467 27.9883 25 27.7601M5.00003 27.7601C4.83853 27.7111 4.68917 27.6517 4.54754 27.5796C3.84193 27.22 3.26825 26.6464 2.90873 25.9407C2.5 25.1386 2.5 24.0885 2.5 21.9883V8.98828C2.5 6.88808 2.5 5.83799 2.90873 5.03582C3.26825 4.33021 3.84193 3.75653 4.54754 3.39701C5.3497 2.98828 6.3998 2.98828 8.5 2.98828H21.5C23.6002 2.98828 24.6503 2.98828 25.4525 3.39701C26.1581 3.75653 26.7317 4.33021 27.0913 5.03582C27.5 5.83799 27.5 6.88808 27.5 8.98828V21.9883C27.5 24.0885 27.5 25.1386 27.0913 25.9407C26.7317 26.6464 26.1581 27.22 25.4525 27.5796C25.3108 27.6517 25.1615 27.7111 25 27.7601M5.00003 27.7601C5.00044 26.7484 5.00651 26.2131 5.09607 25.7628C5.49061 23.7794 7.0411 22.2289 9.02455 21.8344C9.50754 21.7383 10.0884 21.7383 11.25 21.7383H18.75C19.9116 21.7383 20.4925 21.7383 20.9755 21.8344C22.9589 22.2289 24.5094 23.7794 24.9039 25.7628C24.9935 26.2131 24.9996 26.7484 25 27.7601M20 12.3633C20 15.1247 17.7614 17.3633 15 17.3633C12.2386 17.3633 10 15.1247 10 12.3633C10 9.60186 12.2386 7.36328 15 7.36328C17.7614 7.36328 20 9.60186 20 12.3633Z" stroke="#475467" stroke-width="2" stroke-linecap="round" stroke-linejoin="round"/>
</g>
</svg>
